<?xml version="1.0" standalone="no"?>
<!DOCTYPE svg PUBLIC "-//W3C//DTD SVG 20010904//EN"
 "http://www.w3.org/TR/2001/REC-SVG-20010904/DTD/svg10.dtd">
<svg version="1.0" xmlns="http://www.w3.org/2000/svg"
 width="1280.000000pt" height="1280.000000pt" viewBox="0 0 1280.000000 1280.000000"
 preserveAspectRatio="xMidYMid meet">
<g transform="translate(0.000000,1280.000000) scale(0.100000,-0.100000)"
fill="#000000" stroke="none">
<path d="M554 12456 c-101 -32 -194 -135 -216 -239 -43 -203 156 -402 359
-359 116 24 221 129 245 245 46 216 -177 419 -388 353z"/>
<path d="M1834 12456 c-101 -32 -194 -135 -216 -239 -43 -203 156 -402 359
-359 116 24 221 129 245 245 46 216 -177 419 -388 353z"/>
<path d="M3114 12456 c-101 -32 -194 -135 -216 -239 -43 -203 156 -402 359
-359 116 24 221 129 245 245 46 216 -177 419 -388 353z"/>
<path d="M4394 12456 c-101 -32 -194 -135 -216 -239 -43 -203 156 -402 359
-359 116 24 221 129 245 245 46 216 -177 419 -388 353z"/>
<path d="M5674 12456 c-101 -32 -194 -135 -216 -239 -33 -156 82 -325 245
-359 203 -43 402 156 359 359 -37 175 -224 290 -388 239z"/>
<path d="M6954 12456 c-101 -32 -194 -135 -216 -239 -33 -156 82 -325 245
-359 203 -43 402 156 359 359 -37 175 -224 290 -388 239z"/>
<path d="M8234 12456 c-101 -32 -194 -135 -216 -239 -33 -156 82 -325 245
-359 203 -43 402 156 359 359 -37 175 -224 290 -388 239z"/>
<path d="M9514 12456 c-101 -32 -194 -135 -216 -239 -33 -156 82 -325 245
-359 203 -43 402 156 359 359 -37 175 -224 290 -388 239z"/>
<path d="M10794 12456 c-101 -32 -194 -135 -216 -239 -43 -203 156 -402 359
-359 116 24 221 129 245 245 46 216 -177 419 -388 353z"/>
<path d="M12074 12456 c-101 -32 -194 -135 -216 -239 -43 -203 156 -402 359
-359 116 24 221 129 245 245 46 216 -177 419 -388 353z"/>
<path d="M554 11176 c-101 -32 -194 -135 -216 -239 -43 -203 156 -402 359
-359 116 24 221 129 245 245 46 216 -177 419 -388 353z"/>
<path d="M1834 11176 c-101 -32 -194 -135 -216 -239 -43 -203 156 -402 359
-359 116 24 221 129 245 245 46 216 -177 419 -388 353z"/>
<path d="M3114 11176 c-101 -32 -194 -135 -216 -239 -43 -203 156 -402 359
-359 116 24 221 129 245 245 46 216 -177 419 -388 353z"/>
<path d="M4394 11176 c-101 -32 -194 -135 -216 -239 -43 -203 156 -402 359
-359 116 24 221 129 245 245 46 216 -177 419 -388 353z"/>
<path d="M5674 11176 c-101 -32 -194 -135 -216 -239 -33 -156 82 -325 245
-359 203 -43 402 156 359 359 -37 175 -224 290 -388 239z"/>
<path d="M6954 11176 c-101 -32 -194 -135 -216 -239 -43 -203 156 -402 359
-359 163 34 278 203 245 359 -37 175 -224 290 -388 239z"/>
<path d="M8234 11176 c-101 -32 -194 -135 -216 -239 -43 -203 156 -402 359
-359 163 34 278 203 245 359 -37 175 -224 290 -388 239z"/>
<path d="M9514 11176 c-101 -32 -194 -135 -216 -239 -43 -203 156 -402 359
-359 163 34 278 203 245 359 -37 175 -224 290 -388 239z"/>
<path d="M10794 11176 c-101 -32 -194 -135 -216 -239 -43 -203 156 -402 359
-359 116 24 221 129 245 245 46 216 -177 419 -388 353z"/>
<path d="M12074 11176 c-101 -32 -194 -135 -216 -239 -43 -203 156 -402 359
-359 116 24 221 129 245 245 46 216 -177 419 -388 353z"/>
<path d="M554 9896 c-101 -32 -194 -135 -216 -239 -43 -203 156 -402 359 -359
116 24 221 129 245 245 46 216 -177 419 -388 353z"/>
<path d="M1834 9896 c-101 -32 -194 -135 -216 -239 -43 -203 156 -402 359
-359 116 24 221 129 245 245 46 216 -177 419 -388 353z"/>
<path d="M3114 9896 c-101 -32 -194 -135 -216 -239 -43 -203 156 -402 359
-359 116 24 221 129 245 245 46 216 -177 419 -388 353z"/>
<path d="M4394 9896 c-101 -32 -194 -135 -216 -239 -43 -203 156 -402 359
-359 116 24 221 129 245 245 46 216 -177 419 -388 353z"/>
<path d="M5674 9896 c-101 -32 -194 -135 -216 -239 -43 -203 156 -402 359
-359 116 24 221 129 245 245 46 216 -177 419 -388 353z"/>
<path d="M6954 9896 c-101 -32 -194 -135 -216 -239 -43 -203 156 -402 359
-359 116 24 221 129 245 245 46 216 -177 419 -388 353z"/>
<path d="M8234 9896 c-101 -32 -194 -135 -216 -239 -43 -203 156 -402 359
-359 116 24 221 129 245 245 46 216 -177 419 -388 353z"/>
<path d="M9514 9896 c-101 -32 -194 -135 -216 -239 -43 -203 156 -402 359
-359 116 24 221 129 245 245 46 216 -177 419 -388 353z"/>
<path d="M10794 9896 c-101 -32 -194 -135 -216 -239 -43 -203 156 -402 359
-359 116 24 221 129 245 245 46 216 -177 419 -388 353z"/>
<path d="M12074 9896 c-101 -32 -194 -135 -216 -239 -43 -203 156 -402 359
-359 116 24 221 129 245 245 46 216 -177 419 -388 353z"/>
<path d="M554 8616 c-101 -32 -194 -135 -216 -239 -43 -203 156 -402 359 -359
116 24 221 129 245 245 46 216 -177 419 -388 353z"/>
<path d="M1834 8616 c-101 -32 -194 -135 -216 -239 -43 -203 156 -402 359
-359 116 24 221 129 245 245 46 216 -177 419 -388 353z"/>
<path d="M3114 8616 c-101 -32 -194 -135 -216 -239 -43 -203 156 -402 359
-359 116 24 221 129 245 245 46 216 -177 419 -388 353z"/>
<path d="M4394 8616 c-101 -32 -194 -135 -216 -239 -43 -203 156 -402 359
-359 116 24 221 129 245 245 46 216 -177 419 -388 353z"/>
<path d="M5674 8616 c-101 -32 -194 -135 -216 -239 -43 -203 156 -402 359
-359 116 24 221 129 245 245 46 216 -177 419 -388 353z"/>
<path d="M6954 8616 c-101 -32 -194 -135 -216 -239 -43 -203 156 -402 359
-359 116 24 221 129 245 245 46 216 -177 419 -388 353z"/>
<path d="M8234 8616 c-101 -32 -194 -135 -216 -239 -43 -203 156 -402 359
-359 116 24 221 129 245 245 46 216 -177 419 -388 353z"/>
<path d="M9514 8616 c-101 -32 -194 -135 -216 -239 -43 -203 156 -402 359
-359 116 24 221 129 245 245 46 216 -177 419 -388 353z"/>
<path d="M10794 8616 c-101 -32 -194 -135 -216 -239 -43 -203 156 -402 359
-359 116 24 221 129 245 245 46 216 -177 419 -388 353z"/>
<path d="M12074 8616 c-101 -32 -194 -135 -216 -239 -43 -203 156 -402 359
-359 116 24 221 129 245 245 46 216 -177 419 -388 353z"/>
<path d="M554 7336 c-101 -32 -194 -135 -216 -239 -43 -203 156 -402 359 -359
116 24 221 129 245 245 46 216 -177 419 -388 353z"/>
<path d="M1834 7336 c-101 -32 -194 -135 -216 -239 -43 -203 156 -402 359
-359 116 24 221 129 245 245 46 216 -177 419 -388 353z"/>
<path d="M3114 7336 c-101 -32 -194 -135 -216 -239 -43 -203 156 -402 359
-359 116 24 221 129 245 245 46 216 -177 419 -388 353z"/>
<path d="M4394 7336 c-101 -32 -194 -135 -216 -239 -43 -203 156 -402 359
-359 116 24 221 129 245 245 46 216 -177 419 -388 353z"/>
<path d="M5674 7336 c-101 -32 -194 -135 -216 -239 -43 -203 156 -402 359
-359 116 24 221 129 245 245 46 216 -177 419 -388 353z"/>
<path d="M6954 7336 c-101 -32 -194 -135 -216 -239 -43 -203 156 -402 359
-359 116 24 221 129 245 245 46 216 -177 419 -388 353z"/>
<path d="M8234 7336 c-101 -32 -194 -135 -216 -239 -43 -203 156 -402 359
-359 116 24 221 129 245 245 46 216 -177 419 -388 353z"/>
<path d="M9514 7336 c-101 -32 -194 -135 -216 -239 -43 -203 156 -402 359
-359 116 24 221 129 245 245 46 216 -177 419 -388 353z"/>
<path d="M10794 7336 c-101 -32 -194 -135 -216 -239 -43 -203 156 -402 359
-359 116 24 221 129 245 245 46 216 -177 419 -388 353z"/>
<path d="M12074 7336 c-101 -32 -194 -135 -216 -239 -43 -203 156 -402 359
-359 116 24 221 129 245 245 46 216 -177 419 -388 353z"/>
<path d="M554 6056 c-101 -32 -194 -135 -216 -239 -43 -203 156 -402 359 -359
116 24 221 129 245 245 46 216 -177 419 -388 353z"/>
<path d="M1834 6056 c-101 -32 -194 -135 -216 -239 -43 -203 156 -402 359
-359 116 24 221 129 245 245 46 216 -177 419 -388 353z"/>
<path d="M3114 6056 c-101 -32 -194 -135 -216 -239 -43 -203 156 -402 359
-359 116 24 221 129 245 245 46 216 -177 419 -388 353z"/>
<path d="M4394 6056 c-101 -32 -194 -135 -216 -239 -43 -203 156 -402 359
-359 116 24 221 129 245 245 46 216 -177 419 -388 353z"/>
<path d="M5674 6056 c-101 -32 -194 -135 -216 -239 -43 -203 156 -402 359
-359 116 24 221 129 245 245 46 216 -177 419 -388 353z"/>
<path d="M6954 6056 c-101 -32 -194 -135 -216 -239 -43 -203 156 -402 359
-359 116 24 221 129 245 245 46 216 -177 419 -388 353z"/>
<path d="M8234 6056 c-101 -32 -194 -135 -216 -239 -43 -203 156 -402 359
-359 116 24 221 129 245 245 46 216 -177 419 -388 353z"/>
<path d="M9514 6056 c-101 -32 -194 -135 -216 -239 -43 -203 156 -402 359
-359 116 24 221 129 245 245 46 216 -177 419 -388 353z"/>
<path d="M10794 6056 c-101 -32 -194 -135 -216 -239 -43 -203 156 -402 359
-359 116 24 221 129 245 245 46 216 -177 419 -388 353z"/>
<path d="M12074 6056 c-101 -32 -194 -135 -216 -239 -43 -203 156 -402 359
-359 116 24 221 129 245 245 46 216 -177 419 -388 353z"/>
<path d="M554 4776 c-101 -32 -194 -135 -216 -239 -43 -203 156 -402 359 -359
116 24 221 129 245 245 46 216 -177 419 -388 353z"/>
<path d="M1834 4776 c-101 -32 -194 -135 -216 -239 -43 -203 156 -402 359
-359 116 24 221 129 245 245 46 216 -177 419 -388 353z"/>
<path d="M3114 4776 c-101 -32 -194 -135 -216 -239 -43 -203 156 -402 359
-359 116 24 221 129 245 245 46 216 -177 419 -388 353z"/>
<path d="M4394 4776 c-101 -32 -194 -135 -216 -239 -43 -203 156 -402 359
-359 116 24 221 129 245 245 46 216 -177 419 -388 353z"/>
<path d="M5674 4776 c-101 -32 -194 -135 -216 -239 -43 -203 156 -402 359
-359 116 24 221 129 245 245 46 216 -177 419 -388 353z"/>
<path d="M6954 4776 c-101 -32 -194 -135 -216 -239 -43 -203 156 -402 359
-359 116 24 221 129 245 245 46 216 -177 419 -388 353z"/>
<path d="M8234 4776 c-101 -32 -194 -135 -216 -239 -43 -203 156 -402 359
-359 116 24 221 129 245 245 46 216 -177 419 -388 353z"/>
<path d="M9514 4776 c-101 -32 -194 -135 -216 -239 -43 -203 156 -402 359
-359 116 24 221 129 245 245 46 216 -177 419 -388 353z"/>
<path d="M10794 4776 c-101 -32 -194 -135 -216 -239 -43 -203 156 -402 359
-359 116 24 221 129 245 245 46 216 -177 419 -388 353z"/>
<path d="M12074 4776 c-101 -32 -194 -135 -216 -239 -43 -203 156 -402 359
-359 116 24 221 129 245 245 46 216 -177 419 -388 353z"/>
<path d="M554 3496 c-101 -32 -194 -135 -216 -239 -43 -203 156 -402 359 -359
116 24 221 129 245 245 46 216 -177 419 -388 353z"/>
<path d="M1834 3496 c-101 -32 -194 -135 -216 -239 -43 -203 156 -402 359
-359 116 24 221 129 245 245 46 216 -177 419 -388 353z"/>
<path d="M3114 3496 c-101 -32 -194 -135 -216 -239 -43 -203 156 -402 359
-359 116 24 221 129 245 245 46 216 -177 419 -388 353z"/>
<path d="M4394 3496 c-101 -32 -194 -135 -216 -239 -43 -203 156 -402 359
-359 116 24 221 129 245 245 46 216 -177 419 -388 353z"/>
<path d="M5674 3496 c-101 -32 -194 -135 -216 -239 -43 -203 156 -402 359
-359 116 24 221 129 245 245 46 216 -177 419 -388 353z"/>
<path d="M6954 3496 c-101 -32 -194 -135 -216 -239 -43 -203 156 -402 359
-359 116 24 221 129 245 245 46 216 -177 419 -388 353z"/>
<path d="M8234 3496 c-101 -32 -194 -135 -216 -239 -43 -203 156 -402 359
-359 116 24 221 129 245 245 46 216 -177 419 -388 353z"/>
<path d="M9514 3496 c-101 -32 -194 -135 -216 -239 -43 -203 156 -402 359
-359 116 24 221 129 245 245 46 216 -177 419 -388 353z"/>
<path d="M10794 3496 c-101 -32 -194 -135 -216 -239 -43 -203 156 -402 359
-359 116 24 221 129 245 245 46 216 -177 419 -388 353z"/>
<path d="M12074 3496 c-101 -32 -194 -135 -216 -239 -43 -203 156 -402 359
-359 116 24 221 129 245 245 46 216 -177 419 -388 353z"/>
<path d="M554 2216 c-101 -32 -194 -135 -216 -239 -43 -203 156 -402 359 -359
116 24 221 129 245 245 46 216 -177 419 -388 353z"/>
<path d="M1834 2216 c-101 -32 -194 -135 -216 -239 -43 -203 156 -402 359
-359 116 24 221 129 245 245 46 216 -177 419 -388 353z"/>
<path d="M3114 2216 c-101 -32 -194 -135 -216 -239 -43 -203 156 -402 359
-359 116 24 221 129 245 245 46 216 -177 419 -388 353z"/>
<path d="M4394 2216 c-101 -32 -194 -135 -216 -239 -43 -203 156 -402 359
-359 116 24 221 129 245 245 46 216 -177 419 -388 353z"/>
<path d="M5674 2216 c-101 -32 -194 -135 -216 -239 -43 -203 156 -402 359
-359 116 24 221 129 245 245 46 216 -177 419 -388 353z"/>
<path d="M6954 2216 c-101 -32 -194 -135 -216 -239 -43 -203 156 -402 359
-359 116 24 221 129 245 245 46 216 -177 419 -388 353z"/>
<path d="M8234 2216 c-101 -32 -194 -135 -216 -239 -43 -203 156 -402 359
-359 116 24 221 129 245 245 46 216 -177 419 -388 353z"/>
<path d="M9514 2216 c-101 -32 -194 -135 -216 -239 -43 -203 156 -402 359
-359 116 24 221 129 245 245 46 216 -177 419 -388 353z"/>
<path d="M10794 2216 c-101 -32 -194 -135 -216 -239 -43 -203 156 -402 359
-359 116 24 221 129 245 245 46 216 -177 419 -388 353z"/>
<path d="M12074 2216 c-101 -32 -194 -135 -216 -239 -43 -203 156 -402 359
-359 116 24 221 129 245 245 46 216 -177 419 -388 353z"/>
<path d="M554 936 c-101 -32 -194 -135 -216 -239 -43 -203 156 -402 359 -359
163 34 278 203 245 359 -37 175 -224 290 -388 239z"/>
<path d="M1834 936 c-101 -32 -194 -135 -216 -239 -43 -203 156 -402 359 -359
116 24 221 129 245 245 46 216 -177 419 -388 353z"/>
<path d="M3114 936 c-101 -32 -194 -135 -216 -239 -43 -203 156 -402 359 -359
116 24 221 129 245 245 46 216 -177 419 -388 353z"/>
<path d="M4394 936 c-101 -32 -194 -135 -216 -239 -43 -203 156 -402 359 -359
116 24 221 129 245 245 46 216 -177 419 -388 353z"/>
<path d="M5674 936 c-101 -32 -194 -135 -216 -239 -43 -203 156 -402 359 -359
116 24 221 129 245 245 46 216 -177 419 -388 353z"/>
<path d="M6954 936 c-101 -32 -194 -135 -216 -239 -43 -203 156 -402 359 -359
116 24 221 129 245 245 46 216 -177 419 -388 353z"/>
<path d="M8234 936 c-101 -32 -194 -135 -216 -239 -43 -203 156 -402 359 -359
116 24 221 129 245 245 46 216 -177 419 -388 353z"/>
<path d="M9514 936 c-101 -32 -194 -135 -216 -239 -43 -203 156 -402 359 -359
116 24 221 129 245 245 46 216 -177 419 -388 353z"/>
<path d="M10794 936 c-101 -32 -194 -135 -216 -239 -43 -203 156 -402 359
-359 116 24 221 129 245 245 46 216 -177 419 -388 353z"/>
<path d="M12074 936 c-101 -32 -194 -135 -216 -239 -43 -203 156 -402 359
-359 116 24 221 129 245 245 46 216 -177 419 -388 353z"/>
</g>
</svg>
