<?xml version="1.0" standalone="no"?>
<!DOCTYPE svg PUBLIC "-//W3C//DTD SVG 20010904//EN"
 "http://www.w3.org/TR/2001/REC-SVG-20010904/DTD/svg10.dtd">
<svg version="1.0" xmlns="http://www.w3.org/2000/svg"
 width="272.000000pt" height="227.000000pt" viewBox="0 0 272.000000 227.000000"
 preserveAspectRatio="xMidYMid meet">

<g transform="translate(0.000000,227.000000) scale(0.100000,-0.100000)"
fill="#000000" stroke="none">
<path d="M10 1803 c0 -252 -3 -642 -6 -868 l-6 -410 373 -220 c205 -121 400
-235 432 -254 l60 -34 -5 192 c-5 172 -4 191 11 186 8 -3 121 -67 251 -142
129 -75 240 -136 245 -136 6 0 119 64 253 142 134 77 245 141 248 141 2 0 4
-71 5 -157 1 -87 4 -168 7 -181 7 -21 31 -8 417 219 l410 242 -3 436 c-2 240
-7 630 -10 867 l-7 430 -575 -331 -575 -332 -5 -213 -5 -213 -75 -40 -76 -41
-92 53 -92 53 0 201 -1 202 -581 330 c-320 182 -585 332 -590 333 -4 2 -8
-203 -8 -455z m590 -75 l410 -233 0 -202 0 -202 133 -74 c72 -41 155 -87 182
-102 l50 -27 167 88 167 89 3 215 3 215 395 227 c217 126 397 228 401 228 6 0
19 -704 19 -1086 l0 -242 -71 -42 c-39 -23 -72 -40 -74 -38 -1 1 -7 255 -11
564 l-9 561 -252 -141 -253 -140 0 -202 0 -202 -227 -128 c-126 -70 -237 -133
-248 -140 -18 -12 -48 2 -270 121 l-250 135 -5 206 -5 207 -263 159 -264 159
8 -581 c5 -453 4 -580 -5 -580 -7 0 -44 19 -82 41 l-69 41 0 669 c0 368 2 669
5 669 3 0 190 -105 415 -232z m1 -395 l79 -48 2 -208 3 -208 335 -180 c184
-100 338 -181 341 -182 4 -1 158 83 343 187 l336 189 0 202 0 201 76 43 c42
23 77 41 79 39 1 -2 5 -212 9 -468 l7 -465 -80 -47 c-43 -27 -82 -48 -85 -48
-3 0 -6 71 -7 158 -1 86 -4 166 -7 178 -6 19 -34 5 -332 -167 -179 -104 -330
-189 -335 -189 -6 0 -152 81 -325 181 -173 99 -328 187 -343 196 l-28 14 7
-192 7 -193 -54 31 c-30 17 -69 39 -86 49 l-33 19 0 478 c0 262 3 477 6 477 3
0 41 -21 85 -47z"/>
</g>
</svg>
